<svg xmlns="http://www.w3.org/2000/svg" xmlns:xlink="http://www.w3.org/1999/xlink" version="1.1" x="0px" y="0px" width="424px" height="92px" viewBox="0 0 424 92" enable-background="new 0 0 424 92" xml:space="preserve"><g><g><rect fill="#232F68" width="57" height="92"/></g><g><g><path fill="#F3EA1F" d="M28.381 34.1"/><polyline fill="#F3EA1F" points="29,17.7 31,17.7 29.4,18.9 30,20.8 28.4,19.7 26.8,20.8 27.5,18.9 25.9,17.7 27.8,17.7 28.4,15.9 29,17.7"/><polyline fill="#F3EA1F" points="29.1,48.4 31.1,48.4 29.5,49.6 30.1,51.5 28.5,50.4 26.9,51.5 27.5,49.6 25.9,48.4 27.9,48.4 28.5,46.6 29.1,48.4"/><polyline fill="#F3EA1F" points="36.7,46.4 38.6,46.4 37,47.6 37.7,49.5 36.1,48.3 34.5,49.5 35.1,47.6 33.5,46.4 35.5,46.4 36.1,44.5 36.7,46.4"/><polyline fill="#F3EA1F" points="36.7,19.8 38.6,19.8 37,21 37.7,22.9 36.1,21.7 34.5,22.9 35.1,21 33.5,19.8 35.5,19.8 36.1,17.9 36.7,19.8"/><polyline fill="#F3EA1F" points="42.3,25.4 44.2,25.4 42.6,26.6 43.3,28.5 41.7,27.3 40.1,28.5 40.7,26.6 39.1,25.4 41.1,25.4 41.7,23.6 42.3,25.4"/><polyline fill="#F3EA1F" points="42.3,40.8 44.2,40.8 42.6,42 43.3,43.9 41.7,42.8 40.1,43.9 40.7,42 39.1,40.8 41.1,40.8 41.7,39 42.3,40.8"/><polyline fill="#F3EA1F" points="44.4,33 46.4,33 44.8,34.2 45.4,36.1 43.8,34.9 42.2,36.1 42.8,34.2 41.2,33 43.2,33 43.8,31.1 44.4,33"/><polyline fill="#F3EA1F" points="21.3,19.8 23.3,19.8 21.7,21 22.3,22.9 20.7,21.7 19.1,22.9 19.7,21 18.1,19.8 20.1,19.8 20.7,17.9 21.3,19.8"/><polyline fill="#F3EA1F" points="15.8,25.4 17.8,25.4 16.2,26.6 16.8,28.5 15.2,27.4 13.7,28.5 14.3,26.6 12.7,25.4 14.7,25.4 15.2,23.6 15.8,25.4"/><polyline fill="#F3EA1F" points="13.8,33 15.8,33 14.2,34.2 14.8,36.1 13.2,35 11.6,36.1 12.3,34.2 10.7,33 12.6,33 13.2,31.2 13.8,33"/><polyline fill="#F3EA1F" points="15.8,40.8 17.8,40.8 16.2,42 16.8,43.9 15.2,42.8 13.7,43.9 14.3,42 12.7,40.8 14.7,40.8 15.2,39 15.8,40.8"/><polyline fill="#F3EA1F" points="21.4,46.4 23.3,46.4 21.8,47.6 22.4,49.5 20.8,48.3 19.2,49.5 19.8,47.6 18.2,46.4 20.2,46.4 20.8,44.6 21.4,46.4"/></g><g><path fill="#FFFFFF" d="M23.668 64.578h3.54v6.868c0 0.682-0.106 1.324-0.317 1.93c-0.212 0.604-0.543 1.134-0.995 1.6 c-0.451 0.453-0.925 0.771-1.421 0.955c-0.689 0.257-1.517 0.385-2.482 0.385c-0.56 0-1.169-0.039-1.829-0.117 c-0.66-0.079-1.213-0.234-1.656-0.468c-0.444-0.233-0.85-0.564-1.218-0.994s-0.62-0.872-0.756-1.328 c-0.22-0.733-0.329-1.383-0.329-1.949v-6.868h3.54v7.032c0 0.6 0.2 1.1 0.5 1.473c0.348 0.4 0.8 0.5 1.4 0.5 c0.61 0 1.09-0.174 1.437-0.522c0.348-0.348 0.521-0.842 0.521-1.48V64.578z"/><path fill="#FFFFFF" d="M29.573 64.578h3.548v4.356l3.716-4.356h4.719l-4.189 4.352l4.378 7.177h-4.369l-2.421-4.741 l-1.833 1.928v2.813h-3.548V64.578z"/></g></g></g></svg>